<svg width="35" height="36" viewBox="0 0 35 36" fill="none" xmlns="http://www.w3.org/2000/svg">
<circle cx="17.5" cy="18" r="17.5" fill="#23375F"/>
<path d="M21.8389 17.9999H12.8332C12.7225 17.9999 12.63 17.9628 12.5558 17.8885C12.4815 17.8142 12.4443 17.7217 12.4443 17.611C12.4443 17.5003 12.4815 17.4078 12.5558 17.3336C12.63 17.2593 12.7225 17.2221 12.8332 17.2221H21.8389L17.6092 12.9922C17.5333 12.9165 17.4937 12.8272 17.4902 12.7245C17.4867 12.6218 17.5278 12.5275 17.6136 12.4417C17.6993 12.359 17.791 12.3169 17.8888 12.3153C17.9865 12.3139 18.0782 12.356 18.1639 12.4417L22.8934 17.1712C22.9613 17.2391 23.009 17.3085 23.0363 17.3793C23.0638 17.45 23.0775 17.5273 23.0775 17.611C23.0775 17.6948 23.0638 17.772 23.0363 17.8428C23.009 17.9136 22.9613 17.9829 22.8934 18.0509L18.1639 22.7803C18.0912 22.8531 18.0027 22.892 17.8985 22.897C17.7943 22.9019 17.6993 22.863 17.6136 22.7803C17.5278 22.6945 17.4849 22.602 17.4849 22.5029C17.4849 22.4036 17.5278 22.3111 17.6136 22.2254L21.8389 17.9999Z" fill="white"/>
</svg>
