<svg width="20" height="19" viewBox="0 0 20 19" fill="none" xmlns="http://www.w3.org/2000/svg">
<path d="M13.839 9.99993H4.83335C4.72264 9.99993 4.63015 9.96279 4.55587 9.88851C4.4816 9.81423 4.44446 9.72174 4.44446 9.61104C4.44446 9.50033 4.4816 9.40784 4.55587 9.33356C4.63015 9.25929 4.72264 9.22215 4.83335 9.22215H13.839L9.60929 4.9922C9.53346 4.9165 9.49379 4.82725 9.49029 4.72445C9.48679 4.62179 9.52795 4.52755 9.61376 4.44173C9.69945 4.35903 9.79116 4.3169 9.8889 4.31534C9.98664 4.31392 10.0784 4.35605 10.164 4.44173L14.8935 9.1712C14.9614 9.23913 15.0091 9.30848 15.0364 9.37926C15.0639 9.45004 15.0777 9.5273 15.0777 9.61104C15.0777 9.69478 15.0639 9.77204 15.0364 9.84281C15.0091 9.91359 14.9614 9.98294 14.8935 10.0509L10.164 14.7803C10.0913 14.8531 10.0028 14.892 9.89863 14.897C9.7944 14.9019 9.69945 14.863 9.61376 14.7803C9.52795 14.6945 9.48504 14.602 9.48504 14.5029C9.48504 14.4036 9.52795 14.3111 9.61376 14.2254L13.839 9.99993Z" fill="white"/>
</svg>
